# xmcd CD database file
#
# Track frame offsets:
#	150
#	20032
#	34838
#	53706
#	67761
#	85713
#	99739
#	114975
#	129784
#	145395
#	163804
#	179654
#	193156
#	208320
#	230644
#	246636
#	263213
#	279454
#	290418
#
# Disc length: 4043 seconds
#
# Revision: 2
# Processed by: cddbd v1.5.2PL0 Copyright (c) Steve Scherf et al.
# Submitted via: CDex 1.51
#
DISCID=240fc913
DTITLE=Best Of 2007 - Best Of 2007 CD1
DYEAR=2007
DGENRE=Pop
TTITLE0=Alphabeat - 10000 Nights Of Thunder
TTITLE1=Natasja feat. Pharfar - Ildebrand I Byen
TTITLE2=BliGlad - KæRlighed Til Folket
TTITLE3=Torrpedorr - Lommen Fuld Af Guld
TTITLE4=Gym Class Heroes - Cupid´s Chokehold
TTITLE5=Hej Matematik - Gymnastik
TTITLE6=Ida Corr meets Fedde Le Grand - Let Me Think About It
TTITLE7=Bob Sinclair - Sound Of Freedom
TTITLE8=Infernal - I Won´t Be Crying
TTITLE9=Sean Paul - Give It Up To Me
TTITLE10=Kna Conneected - LøGn Og Latin
TTITLE11=Ufo Yepha - Ung, Dum and Trendy
TTITLE12=Jøden - Hamrer LøS
TTITLE13=Turboweekend - Into You
TTITLE14=TrentemøLler feat Ane Trolle - Moan
TTITLE15=Kenneth Bager feat Gisli and The Hellerup Cool School Choir - Fragment Eight
TTITLE16=Freedom vs Musikk - Hang On 2007
TTITLE17=Fedde Le Grand - Put Your Hands Up For Detroit
TTITLE18=Axwell - I Found U
EXTD=YEAR: 2007
EXTT0=
EXTT1=
EXTT2=
EXTT3=
EXTT4=
EXTT5=
EXTT6=
EXTT7=
EXTT8=
EXTT9=
EXTT10=
EXTT11=
EXTT12=
EXTT13=
EXTT14=
EXTT15=
EXTT16=
EXTT17=
EXTT18=
PLAYORDER=
